<svg width="196" height="90" viewBox="0 0 196 90" fill="none" xmlns="http://www.w3.org/2000/svg">
<g clip-path="url(#clip0_377_2)">
<path d="M182.52 13.1969C184.223 13.3386 186.024 13.2867 187.713 13.0575C187.76 13.3646 187.778 13.68 187.753 13.9899C187.564 16.2278 181.316 39.0091 180.588 39.6124C178.858 41.0466 176.883 39.0987 175.109 39.1342C173.08 39.1747 172.576 41.0858 168.77 40.7399C167.368 39.5262 166.014 39.7945 164.95 37.8021C163.735 35.5252 164.155 32.5877 164.887 30.2275C166.012 26.6 168.382 23.2665 171.792 21.4788C173.232 20.7236 174.966 20.1213 176.581 20.6428C177.429 20.9166 178.666 21.6815 179.086 22.4901C180.153 21.3113 180.299 19.0635 180.631 17.5239C180.925 16.1662 181.269 14.0049 182.52 13.1969ZM173.18 35.3377C175.051 34.6763 176.054 33.1336 176.878 31.409C177.453 30.206 178.082 28.4426 177.606 27.1288C177.436 26.6585 177.122 26.321 176.667 26.1148C175.89 25.7627 174.982 25.8769 174.184 26.0938C171.975 27.9516 170.885 29.6984 170.632 32.5927C170.559 33.4227 170.53 34.4687 171.1 35.1465C171.246 35.3206 171.415 35.473 171.592 35.6168C171.956 35.6345 172.833 35.6438 173.121 35.393C173.142 35.3754 173.16 35.3562 173.18 35.3377Z" fill="#FEFEFE"/>
<path d="M20.8574 17.4351C25.8354 17.385 30.8125 17.2687 35.7874 17.0864C35.4216 18.7309 35.1491 21.4368 33.8221 22.5561C32.3785 23.7738 27.114 22.912 25.2681 22.753C25.0337 24.3031 24.6879 25.7602 24.2386 27.2617C27.0818 27.0199 29.9486 27.01 32.8006 26.949C32.236 28.6245 32.0055 30.9066 30.6431 32.1373C29.3102 33.3413 24.5818 32.5824 22.7798 32.5113C22.6003 33.9034 22.3179 35.2161 21.9476 36.5697L21.9488 36.9872C23.5919 37.5578 29.4013 36.9636 31.4723 36.9035C30.9286 38.5525 30.559 40.6588 29.583 42.0989C27.7483 43.218 16.6497 42.7874 13.8741 42.6557C14.7962 38.6029 19.339 20.0099 20.8574 17.4351Z" fill="#FEFEFE"/>
<path d="M59.0865 15.7122C60.6919 15.708 63.2127 15.3674 64.6766 15.9483C65.158 17.7172 63.1789 23.0305 62.4566 24.8713L62.5352 24.8095C64.5399 23.2356 66.7755 22.2795 69.3737 22.6031C70.5032 22.7437 71.5945 23.1885 72.2984 24.118C73.1286 25.214 73.3401 26.7626 73.1544 28.0989C72.8971 29.9507 71.0266 37.7428 70.3406 39.4406C70.0492 40.1619 69.6441 40.8666 69.0097 41.3383C68.0294 42.0671 66.6837 42.2359 65.5008 42.0524C64.7137 41.9303 64.4255 41.5816 63.9849 40.9813C63.4921 38.6975 65.1886 34.9268 65.7771 32.5862C66.0111 31.5938 66.3475 30.547 66.4814 29.5405C66.5798 28.8017 66.3754 28.4321 65.9549 27.8807C65.3598 27.6275 64.8777 27.6254 64.2603 27.8241C60.0766 29.1706 59.8194 38.391 57.8706 42.1212C56.198 42.1253 53.8659 42.4548 52.3107 41.9295C52.1914 41.8892 52.1067 41.6247 52.0485 41.5063C53.3208 36.2779 54.7929 31.076 56.1561 25.8688C57.0053 22.6251 57.6178 18.7061 59.0865 15.7122Z" fill="#FEFEFE"/>
<path d="M85.7564 22.134C86.9015 21.87 89.1608 22.2607 90.2114 22.7952C91.2737 23.3354 92.0164 24.3596 92.365 25.4822C93.2859 28.4473 90.3834 38.1723 88.9208 41.0004C86.5622 43.0681 85.5148 40.4619 83.487 40.6343C81.8194 40.7762 79.9442 42.2554 77.9627 42.4409C76.8178 42.548 75.4512 42.4776 74.5372 41.7001C73.2295 40.5874 72.9043 39.0369 72.7944 37.4259C72.895 37.0392 73.0187 36.659 73.1652 36.2873C75.6289 30.2102 80.6214 31.7232 85.1395 29.7746C85.8123 29.4844 86.3562 29.1246 86.6297 28.4485C86.407 27.9869 86.127 27.7278 85.7018 27.4481C83.8712 26.2433 81.9766 29.425 80.1693 29.7813C79.2808 29.9565 77.5241 30.1934 76.751 29.6639C76.3457 29.3862 76.3604 29.1439 76.2722 28.7015C76.5109 27.6334 77.1502 26.6945 77.835 25.8568C79.9395 23.2828 82.5485 22.4524 85.7564 22.134ZM80.497 37.8295C81.6166 37.8983 82.4669 37.4474 83.2879 36.7214C84.1505 35.9584 84.762 35.0923 85.2678 34.0624L85.1959 33.6028L84.8223 33.5853C83.1619 34.0789 80.3737 34.6309 79.3754 36.1558C79.3476 36.6794 79.296 36.8627 79.6683 37.2769C79.8839 37.5166 80.2154 37.6774 80.497 37.8295Z" fill="#FEFEFE"/>
<path d="M154.602 21.1848C155.492 21.0232 156.433 20.9578 157.337 20.9457C159.158 20.9212 161.138 21.8119 162.431 23.0768C163.622 24.2418 164.379 25.8534 164.388 27.5335C164.396 29.0171 163.734 31.3604 162.694 32.4171C160.305 32.2177 152.7 31.9268 151.101 33.227C150.96 33.5401 150.81 33.7056 150.91 34.0466C151.112 34.7349 151.788 35.3844 152.41 35.7195C154.237 36.7038 157.286 34.1698 159.126 33.642C160.184 33.3387 161.774 33.4344 162.736 33.9735L162.433 34.6527C162.467 34.8491 162.421 35.0073 162.344 35.1867C161.371 37.4192 158.128 39.5141 155.945 40.3614C153.719 41.2253 150.992 41.5008 148.756 40.5128C147.226 39.8533 146.031 38.5976 145.447 37.0361C144.441 34.4215 145.023 31.3499 146.143 28.8687C147.794 25.2077 150.888 22.5981 154.602 21.1848ZM154.45 28.5745C155.66 28.5829 157.415 28.8347 158.328 27.917C158.594 27.6491 158.553 27.5151 158.579 27.1531C158.159 26.494 157.46 25.9002 156.674 25.7399C156.285 25.6606 155.867 25.8015 155.499 25.9193C154.486 26.4668 152.926 27.1785 152.507 28.2788C152.632 28.4215 152.739 28.6274 152.931 28.6418C153.448 28.6809 153.937 28.6323 154.45 28.5745Z" fill="#FEFEFE"/>
<path d="M97.558 22.4274C99.3522 22.2002 101.255 22.2559 103.066 22.1937C104.154 24.4486 99.0304 33.4921 100.486 36.3271C101.019 36.5421 101.27 36.6461 101.86 36.5624C102.642 36.4519 103.69 35.9154 104.161 35.2833C104.399 35.0713 104.614 34.795 104.776 34.5209C105.695 32.9674 108.439 23.6586 108.046 22.1782C110.022 21.9848 112.209 21.9595 114.192 22.0911C114.262 22.2798 114.308 22.4769 114.327 22.6773C114.437 23.8353 113.277 27.5675 112.521 28.4736C112.732 29.2016 110.342 38.7161 109.883 39.7237C109.569 40.4126 109.023 40.8334 108.319 41.0857C107.632 41.3325 105.203 41.5544 104.597 41.2358C104.262 41.0596 103.993 39.9359 103.853 39.5416C102.347 39.8159 101.729 41.7013 98.2324 41.9489C97.0396 42.0333 95.8743 41.8863 94.9431 41.0639C93.9642 40.1993 93.5963 38.891 93.5246 37.6295C93.405 35.5232 96.359 23.7643 97.558 22.4274Z" fill="#FEFEFE"/>
<path d="M122.696 21.7413C123.097 21.6931 123.499 21.6506 123.902 21.6138C126.567 21.371 128.103 21.2281 130.224 23.0025C131.063 23.7042 132.299 25.0152 132.382 26.1485C132.409 26.5086 132.331 26.8154 132.073 27.0847C131.144 28.0537 127.563 27.7551 126.242 27.7815C126.225 27.4756 125.989 26.9441 125.827 26.6878C125.537 26.2323 125.14 25.9645 124.622 25.8503C123.909 25.6931 123.009 25.9768 122.418 26.3762C121.884 26.7371 121.763 27.0911 121.653 27.6883C123.668 29.3057 126.804 29.0133 128.909 30.9882C129.637 31.6711 130.198 32.6314 130.217 33.6508C130.251 35.5429 128.763 37.6326 127.492 38.9325C125.657 40.8071 122.991 41.5724 120.422 41.5961C120.261 41.6071 120.1 41.6103 119.938 41.6059C117.702 41.5342 115.552 40.9369 114 39.2479C113.337 38.527 112.967 37.8153 113.009 36.8275C113.253 36.1092 113.582 35.7234 114.258 35.3689C115.378 34.7813 117.691 34.2572 118.899 34.6252C119.518 35.2522 119.221 35.4554 119.44 36.2324C119.583 36.7376 120.095 37.0203 120.52 37.2651C120.897 37.3297 121.251 37.3357 121.613 37.2035C122.418 36.91 123.747 36.0061 124.113 35.2148C123.574 33.8834 119.163 33.3386 117.72 32.5411C116.767 32.0144 115.882 31.3093 115.578 30.2168C115.185 28.8054 115.849 27.1769 116.539 25.9546C117.834 23.6604 120.237 22.4237 122.696 21.7413Z" fill="#FEFEFE"/>
<path d="M35.824 23.3745C38.1452 23.3159 40.4671 23.2831 42.789 23.2761L44.2606 28.8679C45.5247 26.9094 46.8527 25.1132 48.3114 23.2966C49.5285 23.2222 53.5352 22.6645 54.3551 23.3018C54.0381 25.1206 47.9454 31.0971 46.4655 32.7115C47.4554 34.7196 50.5184 40.0467 49.8931 42.2322C47.6479 42.4263 45.324 42.3834 43.078 42.2304C42.2473 40.4675 41.9717 38.9132 41.7834 36.9725C40.5636 38.5899 39.266 40.7035 37.5139 41.7691C36.0798 42.6411 33.1156 42.8426 31.4866 42.4437C31.3886 42.4197 31.3018 42.2216 31.2463 42.1307C32.3326 39.5049 37.3319 35.0369 39.4818 32.8206C38.0339 29.9678 36.6992 26.4527 35.824 23.3745Z" fill="#FEFEFE"/>
<path d="M138.564 16.9632C140.272 16.7505 142.064 16.7649 143.787 16.6799C143.878 16.8759 143.936 17.0858 143.959 17.301C144.104 18.7228 143.217 20.7438 142.345 21.8241C142.739 21.8039 143.143 21.7165 143.535 21.663C144.334 21.5542 146.078 21.2234 146.742 21.7278C146.836 21.8952 146.917 22.0966 146.909 22.2912C146.857 23.5879 146.399 25.4497 145.431 26.3538C144.587 26.7899 143.565 26.2958 142.641 26.259C142.225 26.3937 141.898 26.5674 141.637 26.9266C141.037 27.7499 139.203 34.8101 139.354 35.7187C139.513 35.8513 139.685 36.0551 139.891 36.0818C141.015 36.2267 141.928 35.5422 142.769 34.8985L142.792 34.978C143.246 36.5033 142.638 37.5061 141.929 38.808C142.013 39.4872 141.976 39.6238 141.664 40.2338C140.699 41.0293 139.615 41.1984 138.403 41.233C136.904 41.2757 134.95 41.0558 133.823 39.9739C130.701 36.9761 135.321 30.3548 135.243 26.7718C134.504 26.4108 133.936 26.8839 133.097 26.6143C132.821 25.4079 133.58 23.1962 134.017 22.013C134.639 21.4602 135.749 21.6532 136.531 21.6799C136.593 21.6008 136.648 21.5192 136.704 21.4362C137.61 20.0817 137.416 18.2861 138.564 16.9632Z" fill="#FEFEFE"/>
<path d="M73.8049 54.2219C73.996 52.9768 73.9484 48.8718 74.8556 48.2121C76.828 46.7777 84.3276 46.3675 86.7675 46.7856C88.4604 47.0757 90.2063 47.7873 91.2277 49.2365C92.1832 50.5923 92.2534 52.2403 91.9668 53.8163C91.3207 57.3699 89.3265 59.8844 86.4841 62.0123C87.5728 64.0062 90.323 68.8288 89.7692 70.9862C89.4305 71.5535 89.0399 71.8603 88.3931 72.029C87.1839 72.3444 85.0274 72.3998 83.8286 72.1064C82.8798 77.1264 79.6105 81.3025 75.4967 84.2015C69.0649 88.7343 60.1843 89.9343 52.5309 88.6085C53.3138 88.1046 54.5096 87.5148 55.1075 86.8312C55.487 86.3971 55.7188 85.9626 55.6808 85.3763C53.9137 83.0901 47.2502 85.3901 44.8377 85.7202C42.5764 86.0296 39.4169 86.1669 37.2273 85.4374C35.8715 84.9857 32.7383 83.797 32.11 82.529C33.077 81.756 35.7228 82.0694 37.0209 81.7045C37.5436 81.5576 38.0219 81.3831 38.303 80.8889C38.2329 80.1767 38.0614 79.7794 37.5151 79.2697C33.6084 75.6248 25.7422 79.1066 21.1324 79.2566C15.9259 79.4258 11.6646 76.6167 8.00595 73.1812C18.4906 76.1299 20.432 71.7442 29.5481 69.3889C32.5747 68.6069 35.7033 68.9067 38.7491 68.3287C39.8949 68.1112 41.518 67.6031 42.1891 66.587C42.5746 66.0033 42.6231 65.4618 42.4822 64.7931C40.7462 62.1146 34.8508 64.2704 32.3177 63.5475L32.1562 63.2176C32.7024 62.1539 34.2789 61.3021 35.2775 60.7139C38.5989 58.7577 42.2175 57.8656 46.0546 57.7303C49.456 57.6102 57.9624 59.4928 60.5021 57.5227C60.8763 57.2325 60.8339 57.0787 60.8885 56.6257C59.7848 54.4703 55.7695 53.0274 53.6359 52.0674L53.5146 51.7277C53.9134 51.3769 54.4129 51.3096 54.9211 51.2384C59.9977 50.5271 69.7548 51.1816 73.8049 54.2219ZM79.3439 59.0847C80.8143 58.5962 82.3297 58.1583 83.7726 57.5975C84.6458 56.9017 85.7293 55.635 85.881 54.4968C85.7245 53.7446 85.6124 53.3429 84.9254 52.8922C83.4858 51.9479 81.8601 52.2468 80.2374 52.3522C79.5356 54.43 79.7555 56.9083 79.3439 59.0847Z" fill="url(#paint0_linear_377_2)"/>
<path d="M75.7731 53.4273C75.9642 52.1822 75.9166 48.0772 76.8238 47.4175C78.7962 45.9832 86.2958 45.5729 88.7357 45.991C90.4286 46.2811 92.1745 46.9927 93.1959 48.4419C94.1514 49.7977 94.2215 51.4457 93.935 53.0217C93.2889 56.5753 91.2947 59.0899 88.4523 61.2177C89.541 63.2116 92.2911 68.0342 91.7374 70.1916C91.3986 70.7589 91.008 71.0657 90.3612 71.2345C89.152 71.5498 86.9956 71.6052 85.7968 71.3119C84.3031 69.7948 84.5633 63.9643 82.3325 62.7023C81.7066 62.7084 81.3599 62.691 80.8439 63.103C79.3102 64.3276 79.1881 70.4876 78.9678 72.4066C77.0795 72.5916 75.1798 72.9552 73.3026 73.2418C73.7896 71.0132 73.9673 68.6212 74.2764 66.3551C74.8868 62.2997 76.0882 57.5173 75.7731 53.4273ZM81.3121 58.2901C82.7825 57.8016 84.2979 57.3637 85.7408 56.803C86.6139 56.1072 87.6975 54.8404 87.8492 53.7022C87.6927 52.95 87.5806 52.5483 86.8935 52.0976C85.454 51.1533 83.8283 51.4522 82.2056 51.5576C81.5038 53.6354 81.7237 56.1137 81.3121 58.2901Z" fill="#FEFEFE"/>
<path d="M47.8959 64.2528C56.5871 63.8491 64.2285 63.4245 72.0878 67.8943C71.7787 70.1604 71.601 72.5524 71.114 74.781C72.9911 74.4943 74.8909 74.1308 76.7792 73.9458C76.7432 75.8026 75.8518 77.6389 74.5426 78.9306C70.6625 82.7582 64.1561 82.6624 59.0877 82.6323C59.83 81.753 60.8463 81.0258 61.2738 79.9287C61.1481 79.5089 61.1716 79.417 60.7502 79.2379C59.5943 78.7467 57.7448 78.8903 56.4889 78.854C50.3418 78.6769 45.3183 77.9767 39.9302 74.786C43.6024 75.2878 47.1931 75.469 50.798 74.4131C52.2009 74.0022 55.4966 72.9808 56.224 71.5783C56.511 71.0253 56.5344 70.5064 56.3359 69.9163C55.4537 67.2931 50.2213 65.4511 47.8959 64.2528Z" fill="url(#paint1_linear_377_2)"/>
<path d="M102.707 51.9227C105.216 51.5742 107.569 51.3801 109.846 52.7261C111.334 53.6055 112.364 55.0261 112.783 56.6977C113.491 59.5195 112.499 62.7772 111.037 65.2003C109.195 68.2522 106.268 70.6482 102.785 71.5012C101.159 71.962 99.0377 71.8178 97.4596 71.2206C95.8898 70.6424 94.6211 69.4532 93.9429 67.924C92.8891 65.5544 93.2092 62.7545 94.1198 60.3942C95.6911 56.3213 98.8064 53.6485 102.707 51.9227ZM102.63 66.5056C104.43 65.8507 105.372 64.5269 106.156 62.8441C106.767 61.5309 107.312 59.7121 106.793 58.2955C106.576 57.7047 106.168 57.2558 105.59 57.003C104.793 56.6545 103.995 56.7406 103.168 56.9083C101.395 58.8038 99.3394 61.2662 99.4431 64.0668C99.4819 65.1169 99.925 65.8379 100.601 66.6069C101.27 66.8524 101.706 66.9231 102.409 66.639C102.488 66.6074 102.562 66.5556 102.63 66.5056Z" fill="#FEFEFE"/>
<path d="M138.011 43.6868C139.863 43.2345 142.32 43.4018 144.252 43.3257C144.295 43.446 144.326 43.5645 144.355 43.6888C144.385 43.8197 144.41 43.9513 144.412 44.0861C144.444 45.7642 141.937 54.4753 141.118 56.2182C140.825 56.8416 140.322 57.3876 139.856 57.8892C142.772 56.4119 145.083 52.922 147.547 50.6986C149.61 50.7308 151.662 50.4515 153.723 50.4572C153.693 50.6204 153.651 50.7758 153.609 50.9361C153.248 52.3288 146.879 58.2079 145.389 59.239C145.473 59.3198 145.552 59.4021 145.626 59.4926C146.256 60.2611 148.285 65.1198 148.176 66.0713C148.163 66.1873 148.148 66.3008 148.12 66.4146C148.515 66.8643 149.177 67.8148 149.267 68.4074C149.34 68.8852 149.154 69.0425 148.897 69.4068C147.332 70.1465 144.769 69.8429 143.027 69.8514C143.075 69.5065 140.92 64.0496 140.659 62.885L140.314 62.7688C138.823 64.2856 138.661 69.0079 137.6 69.7492C137.578 69.7641 137.556 69.7779 137.534 69.7931C136.257 70.701 132.659 70.195 131.094 70.1466C132.391 68.5279 137.572 46.915 138.011 43.6868Z" fill="#FEFEFE"/>
<path d="M160.621 49.8999C162.291 49.6726 163.787 49.4115 165.435 49.8998C167.206 50.4243 168.779 51.5301 169.667 53.1757C170.609 54.9224 170.643 56.9459 170.068 58.8157C169.961 59.166 169.58 60.3811 169.326 60.5933C167.5 62.1164 159.574 60.3994 157.179 61.671C157.088 61.8496 156.879 62.1534 156.897 62.3455C156.959 62.9827 157.421 63.5958 157.899 63.9962C158.532 64.5258 159.461 64.8966 160.296 64.8187C161.546 64.7018 162.757 63.4945 163.527 62.5615C164.821 62.4545 166.275 62.2392 167.562 62.3493C168.072 62.3929 168.424 62.415 168.755 62.811L168.272 63.4463C168.285 63.6526 168.222 63.8701 168.145 64.0604C167.359 66.0353 164.215 68.1558 162.331 68.9448C160.145 69.8605 157.447 70.1629 155.21 69.2449C153.615 68.6028 152.347 67.3426 151.696 65.7511C150.707 63.3394 151.143 60.4527 152.124 58.1119C153.729 54.2853 156.823 51.463 160.621 49.8999ZM160.72 57.5187C161.754 57.5134 163.273 57.7253 164.059 56.9361C164.435 56.558 164.464 56.3442 164.554 55.8392C164.344 55.2873 164.03 54.9784 163.488 54.7414C162.809 54.4453 162.2 54.4878 161.491 54.6222C160.598 55.0725 158.986 55.8341 158.418 56.647L158.457 57.1219C159.328 57.6934 159.792 57.3433 160.72 57.5187Z" fill="#FEFEFE"/>
<path d="M123.387 51.1998C123.791 51.1173 124.199 51.0532 124.61 51.0078C126.998 50.7564 129.073 51.2993 130.946 52.8254C131.955 53.6479 133.119 54.9154 133.24 56.2612C133.301 56.9374 133.019 57.5722 132.581 58.0772C131.962 58.7925 128.044 58.8857 126.96 58.9785C126.963 58.8164 126.95 58.6592 126.91 58.5014C126.712 57.7247 126.188 56.8437 125.482 56.4333C124.96 56.1298 124.35 56.0769 123.773 56.243C122.493 56.6116 121.202 58.1795 120.586 59.3169C119.82 60.7341 119.424 62.5606 119.908 64.1278C120.117 64.8026 120.529 65.4263 121.169 65.7574C121.651 66.0067 122.245 66.0606 122.759 65.883C124.043 65.4391 125.086 63.7956 125.642 62.6175C127.229 62.4112 128.901 62.4577 130.5 62.464C131.093 62.5858 131.351 62.5269 131.699 63.0458C131.694 63.2276 131.67 63.4358 131.596 63.6039C130.388 66.3564 127.606 69.1248 124.851 70.2649C122.59 71.2007 119.83 71.4581 117.534 70.4939C115.885 69.8097 114.581 68.491 113.915 66.8348C112.954 64.466 113.406 61.8671 114.376 59.5816C116.252 55.1606 119.018 52.9562 123.387 51.1998Z" fill="#FEFEFE"/>
<path d="M180.186 44.9667C180.797 44.862 181.27 44.7449 181.839 45.0543C182.014 45.2973 182.104 45.5789 182.12 45.8769C182.181 47.0285 181.37 49.0092 180.609 49.8693C181.853 49.6768 183.094 49.4843 184.347 49.3572C184.755 49.8654 184.817 50.0999 184.847 50.7544C184.906 52.0418 184.413 53.777 183.555 54.7352C182.696 55.1497 180.587 54.6337 179.571 54.5718C179.942 57.4368 177.342 60.8071 178.121 63.6356C179.392 64.4478 180.226 63.0494 181.499 63.1692C181.617 63.5925 181.532 63.8964 181.433 64.308C181.071 65.8042 180.894 67.4921 179.487 68.3512C179.342 68.5269 179.091 68.6392 178.885 68.7302C176.845 69.6321 174.159 68.7617 172.207 68.0097C172.312 67.0769 171.249 66.0144 171.358 64.7451C171.639 61.453 173.113 58.4088 173.627 55.1712C173.11 54.6736 172.244 55.3138 171.521 54.9106C171.443 54.7559 171.373 54.5733 171.361 54.3992C171.039 49.4147 173.6 51.1779 175.443 48.701C176.072 47.856 176.053 46.4334 176.591 45.8244C177.366 44.9453 179.103 45.0273 180.186 44.9667Z" fill="#FEFEFE"/>
</g>
<defs>
<linearGradient id="paint0_linear_377_2" x1="48.0132" y1="50.5053" x2="45.9224" y2="87.9003" gradientUnits="userSpaceOnUse">
<stop stop-color="#F5620A"/>
<stop offset="1" stop-color="#FD990A"/>
</linearGradient>
<linearGradient id="paint1_linear_377_2" x1="58.8312" y1="63.9801" x2="59.8091" y2="82.2922" gradientUnits="userSpaceOnUse">
<stop stop-color="#F9B206"/>
<stop offset="1" stop-color="#FDCE10"/>
</linearGradient>
<clipPath id="clip0_377_2">
<rect width="196" height="90" fill="white"/>
</clipPath>
</defs>
</svg>
