<?xml version="1.0" encoding="utf-8" ?>
<svg xmlns="http://www.w3.org/2000/svg" xmlns:xlink="http://www.w3.org/1999/xlink" width="196" height="90">
	<defs>
		<linearGradient id="gradient_0" gradientUnits="userSpaceOnUse" x1="51.817471" y1="44.689247" x2="44.542618" y2="81.429352">
			<stop offset="0" stop-color="#F5620A"/>
			<stop offset="1" stop-color="#FD990A"/>
		</linearGradient>
	</defs>
	<path fill="url(#gradient_0)" d="M76.8409 51.9592C77.2034 50.7528 77.7276 46.6811 78.7178 46.1541C80.8706 45.0082 88.3543 45.6457 90.7123 46.3993C92.3483 46.9222 93.9782 47.8698 94.788 49.4471C95.5455 50.9227 95.3856 52.5644 94.8825 54.0852C93.7481 57.5143 91.4234 59.7268 88.3125 61.4384C89.1131 63.5644 91.1653 68.7228 90.3167 70.7821C89.9023 71.2968 89.4728 71.5462 88.8088 71.6233C87.5675 71.7673 85.4243 71.522 84.278 71.0647C82.6398 75.9038 78.8211 79.5842 74.3439 81.8825C67.3438 85.476 58.3826 85.4284 50.9882 83.0504C51.8336 82.6603 53.0999 82.2427 53.7871 81.6489C54.2233 81.2719 54.5133 80.8739 54.5573 80.288C53.1256 77.7781 46.2068 79.1283 43.7719 79.1195C41.4895 79.1112 38.3417 78.8074 36.2749 77.7803C34.9952 77.1443 32.0579 75.5311 31.6122 74.188C32.6773 73.5571 35.2538 74.2357 36.59 74.055C37.1281 73.9823 37.626 73.876 37.9732 73.4258C38.0029 72.7107 37.8883 72.2934 37.4183 71.7127C34.0569 67.5595 25.7826 69.9127 21.1968 69.4196C16.0175 68.8626 12.1886 65.4878 9.04367 61.5765C19.0159 65.9557 21.5488 61.8829 30.904 60.8192C34.0099 60.4661 37.0664 61.1984 40.163 61.0499C41.3279 60.994 43.0059 60.7167 43.8119 59.8039C44.2749 59.2795 44.3983 58.75 44.3518 58.0682C43.0055 55.1742 36.8674 56.4885 34.4596 55.4201L34.3455 55.071C35.0345 54.0936 36.7142 53.4695 37.7849 53.026C41.3462 51.5511 45.0538 51.1713 48.8724 51.5713C52.2574 51.9258 60.419 54.9739 63.2082 53.3765C63.6191 53.1412 63.5985 52.983 63.7156 52.542C62.9227 50.254 59.1472 48.2663 57.168 47.0187L57.0952 46.6654C57.5389 46.3735 58.0429 46.3764 58.5561 46.3766C63.6823 46.3788 73.2533 48.3848 76.8409 51.9592ZM81.6492 57.5455C83.1733 57.2664 84.7349 57.0437 86.2418 56.6892C87.2033 56.1217 88.4526 55.0181 88.7612 53.9121C88.7109 53.1454 88.6558 52.732 88.0382 52.1901C86.7441 51.0546 85.0926 51.1244 83.471 51.0029C82.4869 52.9628 82.3597 55.4476 81.6492 57.5455Z"/>
	<path fill="#FEFEFE" d="M76.8409 51.9592C77.2034 50.7528 77.7276 46.6811 78.7178 46.1541C80.8706 45.0082 88.3543 45.6457 90.7123 46.3993C92.3483 46.9222 93.9782 47.8698 94.788 49.4471C95.5455 50.9227 95.3856 52.5644 94.8825 54.0852C93.7481 57.5143 91.4234 59.7268 88.3125 61.4384C89.1131 63.5644 91.1653 68.7228 90.3167 70.7821C89.9023 71.2968 89.4728 71.5462 88.8088 71.6233C87.5675 71.7673 85.4243 71.522 84.278 71.0647C83.01 69.3545 84.0791 63.617 82.0457 62.0568C81.425 61.9757 81.0841 61.9102 80.5158 62.2464C78.8266 63.2457 77.8484 69.3287 77.3631 71.1984C75.4675 71.1188 73.5356 71.2144 71.6368 71.237C72.4292 69.0979 72.9381 66.7539 73.5596 64.5529C74.7284 60.6219 76.5837 56.0532 76.8409 51.9592ZM81.6492 57.5455C83.1733 57.2664 84.7349 57.0437 86.2418 56.6892C87.2033 56.1217 88.4526 55.0181 88.7612 53.9121C88.7109 53.1454 88.6558 52.732 88.0382 52.1901C86.7441 51.0546 85.0926 51.1244 83.471 51.0029C82.4869 52.9628 82.3597 55.4476 81.6492 57.5455Z"/>
	<defs>
		<linearGradient id="gradient_1" gradientUnits="userSpaceOnUse" x1="60.976791" y1="58.831825" x2="59.396545" y2="77.10183">
			<stop offset="0" stop-color="#F9B206"/>
			<stop offset="1" stop-color="#FDCE10"/>
		</linearGradient>
	</defs>
	<path fill="url(#gradient_1)" d="M50.1099 57.58C58.7727 58.3898 66.3988 59.0328 73.5596 64.5529C72.9381 66.7539 72.4292 69.0979 71.6368 71.237C73.5356 71.2144 75.4675 71.1188 77.3631 71.1984C77.0691 73.0321 75.9308 74.7265 74.4545 75.8234C70.0795 79.0738 63.6498 78.0734 58.6349 77.3382C59.4923 76.5707 60.5999 75.9921 61.176 74.9651C61.1099 74.5319 61.146 74.4442 60.7536 74.2082C59.6773 73.5609 57.8258 73.4457 56.5872 73.235C50.5246 72.2041 45.6474 70.8116 40.7558 66.902C44.3224 67.91 47.853 68.5892 51.5697 68.0453C53.0162 67.8336 56.422 67.2808 57.3375 65.9932C57.6986 65.4855 57.794 64.9749 57.6796 64.363C57.171 61.6425 52.2459 59.0902 50.1099 57.58Z"/>
	<path fill="#FEFEFE" d="M182.771 14.6249C184.471 14.7963 186.273 14.7758 187.966 14.5761C188.007 14.884 188.02 15.1997 187.989 15.5091C187.761 17.7433 181.117 40.4121 180.378 41.0026C178.623 42.4064 176.683 40.4244 174.908 40.4289C172.879 40.434 172.342 42.336 168.542 41.9237C167.162 40.6857 165.803 40.9303 164.774 38.9197C163.599 36.6219 164.07 33.6922 164.843 31.3451C166.032 27.7378 168.459 24.4462 171.9 22.7183C173.353 21.9883 175.097 21.4164 176.703 21.966C177.546 22.2545 178.769 23.0409 179.175 23.8567C180.263 22.6967 180.448 20.4518 180.807 18.9183C181.124 17.5659 181.506 15.4109 182.771 14.6249ZM173.046 36.5993C174.928 35.9706 175.958 34.4457 176.812 32.7357C177.408 31.543 178.068 29.7908 177.615 28.4689C177.453 27.9957 177.145 27.6528 176.693 27.4386C175.923 27.0731 175.013 27.1714 174.211 27.3743C171.97 29.1933 170.85 30.9208 170.546 33.8102C170.459 34.6388 170.412 35.6842 170.97 36.3718C171.113 36.5485 171.279 36.7038 171.453 36.8506C171.817 36.8747 172.694 36.8993 172.986 36.6536C173.007 36.6363 173.026 36.6174 173.046 36.5993Z"/>
	<path fill="#FEFEFE" d="M21.0589 16.0408C26.037 16.0776 31.0154 16.0482 35.9927 15.9527C35.5983 17.5906 35.2786 20.2913 33.9323 21.3873C32.4676 22.5796 27.219 21.626 25.3761 21.4349C25.1147 22.9806 24.7435 24.4315 24.2681 25.9249C27.1151 25.7328 29.9816 25.7729 32.8343 25.7617C32.2405 27.4271 31.9702 29.7048 30.5865 30.9115C29.2328 32.0921 24.5184 31.2508 22.7179 31.1482C22.5141 32.537 22.2089 33.8446 21.815 35.1915L21.8089 35.609C23.4418 36.2081 29.2607 35.7154 31.3324 35.6915C30.76 37.3307 30.3537 39.4303 29.3528 40.8531C27.4988 41.94 16.4094 41.3158 13.6365 41.1357C14.6292 37.0996 19.4958 18.5887 21.0589 16.0408Z"/>
	<path fill="#FEFEFE" d="M59.3131 14.9861C60.9184 15.01 63.4447 14.7134 64.8983 15.3198C65.3487 17.0968 63.2772 22.3748 62.5229 24.2027L62.6025 24.1422C64.6344 22.6036 66.8863 21.6866 69.4785 22.0555C70.6054 22.2158 71.6887 22.6796 72.3763 23.6212C73.1873 24.7316 73.3717 26.2836 73.1627 27.6165C72.8731 29.4635 70.8669 37.2218 70.1514 38.9073C69.8475 39.6234 69.4301 40.321 68.7876 40.7815C67.7947 41.4931 66.4463 41.6384 65.2667 41.4343C64.4819 41.2985 64.1998 40.9448 63.7698 40.3369C63.3169 38.0448 65.079 34.3043 65.7082 31.9743C65.9595 30.9862 66.3141 29.9454 66.4656 28.9414C66.5768 28.2044 66.3789 27.8313 65.9681 27.2727C65.3775 27.0091 64.8955 26.9986 64.2748 27.1865C60.0682 28.4598 59.6501 37.6743 57.6365 41.3699C55.9641 41.3448 53.6266 41.6336 52.0808 41.0812C51.9622 41.0388 51.8822 40.7729 51.826 40.6535C53.1894 35.4481 54.752 30.2727 56.2059 25.0901C57.1116 21.8617 57.7924 17.954 59.3131 14.9861Z"/>
	<path fill="#FEFEFE" d="M103.153 52.1231C105.673 51.8624 108.031 51.7505 110.26 53.1751C111.716 54.1059 112.696 55.5616 113.057 57.2468C113.666 60.0916 112.561 63.3127 111.015 65.6833C109.067 68.669 106.059 70.9615 102.548 71.6924C100.907 72.0962 98.7919 71.878 97.2356 71.2261C95.687 70.5935 94.4606 69.3607 93.8361 67.8088C92.8657 65.4038 93.2833 62.6168 94.2757 60.2897C95.9882 56.2742 99.1949 53.7117 103.153 52.1231ZM102.567 66.6944C104.389 66.1027 105.377 64.8126 106.219 63.1582C106.876 61.8671 107.484 60.0685 107.014 58.6346C106.818 58.0366 106.426 57.5737 105.857 57.3009C105.073 56.9248 104.272 56.983 103.44 57.1217C101.602 58.9542 99.4617 61.3434 99.4676 64.1459C99.4697 65.1967 99.8874 65.9327 100.536 66.7248C101.196 66.9935 101.629 67.0794 102.342 66.82C102.422 66.7912 102.498 66.742 102.567 66.6944Z"/>
	<path fill="#FEFEFE" d="M138.723 45.124C140.59 44.7366 143.04 44.9895 144.973 44.9809C145.012 45.1026 145.039 45.2221 145.063 45.3474C145.089 45.4792 145.109 45.6116 145.107 45.7464C145.08 47.4246 142.27 56.0429 141.391 57.7562C141.077 58.369 140.555 58.8971 140.072 59.3821C143.037 58.0075 145.469 54.6004 148.009 52.4643C150.069 52.5685 152.13 52.361 154.189 52.4386C154.154 52.6006 154.106 52.7545 154.059 52.9132C153.649 54.2925 147.079 59.9457 145.554 60.9242C145.635 61.0079 145.711 61.0929 145.782 61.1859C146.385 61.9759 148.243 66.9025 148.101 67.8496C148.084 67.9651 148.065 68.078 148.033 68.1907C148.412 68.6539 149.04 69.6269 149.11 70.2223C149.166 70.7024 148.975 70.8531 148.705 71.2082C147.115 71.8928 144.564 71.5 142.823 71.4477C142.883 71.1047 140.92 65.5759 140.7 64.4029L140.359 64.2747C138.816 65.7386 138.489 70.4523 137.403 71.1561C137.381 71.1703 137.358 71.1833 137.336 71.1977C136.028 72.0605 132.449 71.4292 130.887 71.3262C132.24 69.7538 138.172 48.3349 138.723 45.124Z"/>
	<path fill="#FEFEFE" d="M85.8668 21.8735C87.0164 21.6295 89.2685 22.0596 90.3096 22.6123C91.3623 23.171 92.087 24.208 92.416 25.3365C93.285 28.3172 90.2132 37.9901 88.7015 40.7922C86.3071 42.8185 85.3054 40.1944 83.2749 40.3314C81.6051 40.4441 79.7043 41.8904 77.7199 42.0413C76.5733 42.1284 75.2081 42.0341 74.3079 41.2408C73.0198 40.1055 72.7217 38.5495 72.6399 36.9368C72.7472 36.552 72.8776 36.174 73.0305 35.8049C75.5999 29.7717 80.5652 31.3716 85.1167 29.5022C85.7944 29.2238 86.3445 28.8735 86.6298 28.2023C86.4152 27.7369 86.1397 27.4729 85.7195 27.1858C83.9102 25.9493 81.9603 29.0974 80.1471 29.4221C79.2557 29.5818 77.4951 29.788 76.7314 29.2451C76.331 28.9604 76.3499 28.7183 76.2694 28.2745C76.5267 27.2107 77.1823 26.2831 77.8817 25.4575C80.0308 22.9206 82.6539 22.1359 85.8668 21.8735ZM80.3343 37.4748C81.4525 37.5631 82.3106 37.1272 83.1441 36.4156C84.0199 35.6678 84.6464 34.8125 85.1701 33.7915L85.1062 33.3308L84.733 33.3067C83.0642 33.7713 80.2668 34.2745 79.2421 35.7818C79.2051 36.3048 79.1503 36.4872 79.5154 36.9078C79.7267 37.1513 80.0554 37.3178 80.3343 37.4748Z"/>
	<path fill="#FEFEFE" d="M154.718 22.1245C155.611 21.9784 156.553 21.9295 157.457 21.9331C159.278 21.9404 161.242 22.8655 162.513 24.1528C163.683 25.3384 164.412 26.963 164.392 28.643C164.374 30.1265 163.671 32.4579 162.613 33.4963C160.228 33.2552 152.629 32.8316 151.007 34.1037C150.861 34.4143 150.708 34.5772 150.802 34.9199C150.992 35.6116 151.657 36.2728 152.273 36.6187C154.082 37.6347 157.175 35.1543 159.024 34.6587C160.087 34.3739 161.675 34.4974 162.628 35.0532L162.313 35.727C162.343 35.9239 162.295 36.0813 162.214 36.2594C161.203 38.4745 157.924 40.5125 155.726 41.3216C153.485 42.1465 150.754 42.3744 148.536 41.3475C147.017 40.6614 145.844 39.385 145.288 37.8136C144.328 35.1818 144.963 32.1208 146.126 29.6596C147.841 26.0279 150.98 23.4727 154.718 22.1245ZM154.437 29.5104C155.647 29.5399 157.397 29.8223 158.326 28.9207C158.597 28.6575 158.558 28.5228 158.59 28.1613C158.182 27.4949 157.493 26.889 156.71 26.715C156.323 26.629 155.902 26.7625 155.532 26.8739C154.51 27.4036 152.938 28.088 152.5 29.1808C152.622 29.3257 152.725 29.5334 152.917 29.5512C153.433 29.5993 153.923 29.5592 154.437 29.5104Z"/>
	<path fill="#FEFEFE" d="M161.103 52.1245C162.78 51.9556 164.285 51.7469 165.915 52.2924C167.666 52.8784 169.2 54.0384 170.03 55.714C170.91 57.4925 170.873 59.5159 170.234 61.3646C170.114 61.7109 169.691 62.9119 169.43 63.1152C167.552 64.5736 159.691 62.581 157.253 63.7683C157.156 63.9436 156.936 64.2399 156.947 64.4325C156.987 65.0715 157.427 65.7003 157.891 66.1172C158.505 66.6685 159.421 67.0716 160.258 67.0228C161.511 66.9496 162.764 65.7853 163.566 64.8798C164.863 64.818 166.323 64.6536 167.606 64.8085C168.114 64.8699 168.465 64.9043 168.782 65.3116L168.277 65.9296C168.283 66.1363 168.212 66.3514 168.129 66.5389C167.274 68.4852 164.058 70.4947 162.148 71.2175C159.931 72.0563 157.224 72.2644 155.021 71.2689C153.449 70.5715 152.226 69.2678 151.631 67.6545C150.726 65.2098 151.263 62.3401 152.325 60.0349C154.063 56.2667 157.253 53.5541 161.103 52.1245ZM160.937 59.7421C161.97 59.7729 163.481 60.0377 164.294 59.2764C164.683 58.9116 164.719 58.699 164.827 58.1974C164.636 57.6385 164.333 57.3188 163.8 57.0631C163.132 56.7435 162.521 56.7647 161.808 56.8743C160.9 57.2931 159.262 57.998 158.666 58.7906L158.689 59.2666C159.539 59.8681 160.015 59.5344 160.937 59.7421Z"/>
	<path fill="#FEFEFE" d="M97.6609 22.3712C99.4588 22.1754 101.36 22.2643 103.172 22.2337C104.221 24.5072 98.94 33.4599 100.346 36.3199C100.875 36.5442 101.124 36.6525 101.716 36.5792C102.499 36.4823 103.557 35.9642 104.039 35.3404C104.28 35.1326 104.5 34.8601 104.667 34.5889C105.613 33.0516 108.519 23.7921 108.152 22.3051C110.131 22.1462 112.318 22.1591 114.298 22.3253C114.365 22.5152 114.407 22.713 114.423 22.9137C114.513 24.0735 113.288 27.7849 112.516 28.6776C112.714 29.4092 110.159 38.8806 109.682 39.88C109.356 40.5633 108.803 40.9745 108.095 41.2145C107.403 41.4492 104.971 41.6287 104.371 41.2996C104.039 41.1176 103.789 39.9894 103.656 39.5927C102.146 39.8407 101.495 41.715 97.9945 41.9015C96.8004 41.9651 95.6378 41.7978 94.7211 40.9592C93.7575 40.0777 93.4125 38.7632 93.3628 37.5006C93.28 35.3925 96.4387 23.687 97.6609 22.3712Z"/>
	<path fill="#FEFEFE" d="M122.807 22.1238C123.209 22.0826 123.612 22.0472 124.015 22.0174C126.684 21.8211 128.222 21.7051 130.312 23.5162C131.139 24.2325 132.352 25.5648 132.415 26.6994C132.436 27.0599 132.352 27.3653 132.09 27.6301C131.144 28.5827 127.569 28.2217 126.247 28.225C126.236 27.9189 126.009 27.3833 125.851 27.1242C125.569 26.6637 125.177 26.389 124.661 26.2658C123.951 26.0962 123.046 26.3642 122.448 26.7532C121.908 27.1047 121.781 27.4565 121.661 28.0517C123.647 29.704 126.788 29.4664 128.858 31.4778C129.574 32.1733 130.118 33.1432 130.119 34.1628C130.12 36.0552 128.596 38.1186 127.302 39.3961C125.435 41.2384 122.756 41.9571 120.187 41.9359C120.026 41.9441 119.865 41.9445 119.703 41.9373C117.469 41.8266 115.329 41.1918 113.807 39.476C113.157 38.7436 112.799 38.0256 112.858 37.0387C113.115 36.3247 113.451 35.9448 114.133 35.6021C115.263 35.0341 117.585 34.5505 118.786 34.9395C119.394 35.5772 119.093 35.7752 119.299 36.5559C119.433 37.0635 119.94 37.3551 120.361 37.6073C120.736 37.6785 121.09 37.6906 121.455 37.5648C122.265 37.2854 123.609 36.4048 123.989 35.62C123.473 34.2794 119.072 33.6577 117.644 32.8352C116.7 32.2919 115.827 31.5715 115.542 30.4738C115.174 29.0558 115.866 27.4391 116.578 26.229C117.912 23.9578 120.337 22.7632 122.807 22.1238Z"/>
	<path fill="#FEFEFE" d="M35.9196 22.2411C38.2415 22.2231 40.5636 22.2308 42.8853 22.2643L44.2591 27.8809C45.5571 25.9448 46.9163 24.172 48.4065 22.3812C49.6247 22.328 53.6405 21.8403 54.4492 22.4919C54.1005 24.3048 47.9044 30.1741 46.3965 31.7624C47.3512 33.7875 50.3208 39.1672 49.6575 41.3415C47.4092 41.4964 45.0864 41.4129 42.8434 41.2208C42.0436 39.4436 41.7952 37.8848 41.6408 35.9411C40.3929 37.5369 39.0587 39.6276 37.2882 40.6624C35.8391 41.5093 32.8719 41.659 31.2501 41.2317C31.1525 41.206 31.0692 41.0064 31.0153 40.9146C32.1472 38.3081 37.2238 33.9281 39.412 31.7496C38.0141 28.872 36.741 25.3341 35.9196 22.2411Z"/>
	<path fill="#FEFEFE" d="M123.846 52.1237C124.253 52.0553 124.663 52.0055 125.075 51.9745C127.47 51.8066 129.525 52.4216 131.344 54.0121C132.324 54.8693 133.443 56.1767 133.517 57.5259C133.554 58.2038 133.25 58.8284 132.795 59.3178C132.151 60.011 128.232 59.9674 127.146 60.0224C127.154 59.8604 127.147 59.7029 127.112 59.5438C126.941 58.7606 126.449 57.8619 125.757 57.4271C125.246 57.1056 124.638 57.0314 124.056 57.1773C122.764 57.501 121.419 59.0229 120.764 60.1381C119.949 61.5277 119.489 63.3393 119.918 64.9224C120.103 65.6041 120.493 66.2418 121.122 66.595C121.595 66.861 122.186 66.9356 122.706 66.776C124.005 66.3772 125.105 64.7711 125.701 63.6131C127.295 63.4624 128.964 63.5672 130.562 63.6293C131.15 63.7717 131.41 63.7218 131.74 64.2526C131.728 64.4341 131.697 64.6413 131.617 64.8067C130.314 67.5154 127.437 70.185 124.644 71.2283C122.352 72.0846 119.584 72.2455 117.323 71.2018C115.699 70.4604 114.442 69.097 113.834 67.4186C112.957 65.0177 113.499 62.4362 114.548 60.1859C116.577 55.8331 119.419 53.7266 123.846 52.1237Z"/>
	<path fill="#FEFEFE" d="M138.757 17.6245C140.468 17.4417 142.26 17.4873 143.984 17.4324C144.072 17.63 144.126 17.8409 144.145 18.0564C144.265 19.4805 143.343 21.4858 142.452 22.5507C142.847 22.5374 143.252 22.457 143.645 22.4104C144.446 22.3155 146.195 22.0152 146.85 22.5311C146.941 22.7001 147.019 22.9029 147.008 23.0974C146.933 24.3929 146.442 26.2465 145.459 27.1335C144.607 27.5548 143.594 27.043 142.671 26.9901C142.253 27.1175 141.923 27.2855 141.655 27.64C141.041 28.4527 139.084 35.4799 139.219 36.3909C139.376 36.5263 139.544 36.7331 139.75 36.7634C140.871 36.9279 141.796 36.2594 142.648 35.6305L142.67 35.7104C143.097 37.2434 142.472 38.2354 141.74 39.5247C141.812 40.2053 141.773 40.3412 141.45 40.9457C140.471 41.7242 139.385 41.8744 138.172 41.8878C136.673 41.9044 134.723 41.6504 133.615 40.549C130.546 37.4972 135.281 30.9575 135.265 27.3737C134.533 26.9998 133.956 27.4629 133.122 27.1787C132.867 25.9677 133.665 23.7696 134.122 22.5942C134.754 22.0523 135.86 22.2647 136.642 22.305C136.705 22.227 136.762 22.1464 136.819 22.0644C137.749 20.7259 137.586 18.9272 138.757 17.6245Z"/>
	<path fill="#FEFEFE" d="M180.827 47.875C181.441 47.7917 181.918 47.6912 182.476 48.0203C182.643 48.2692 182.723 48.5538 182.728 48.8522C182.749 50.0052 181.869 51.9564 181.079 52.7894C182.329 52.6405 183.576 52.4914 184.832 52.4081C185.222 52.9302 185.276 53.1667 185.283 53.8219C185.297 55.1105 184.744 56.8275 183.853 57.7552C182.98 58.1394 180.891 57.5502 179.877 57.4528C180.148 60.329 177.432 63.6065 178.112 66.4605C179.354 67.3166 180.236 65.9481 181.504 66.1123C181.607 66.5394 181.512 66.8402 181.398 67.2481C180.984 68.7307 180.749 70.4114 179.312 71.2209C179.161 71.3914 178.907 71.4949 178.698 71.5787C176.627 72.4088 173.973 71.4452 172.049 70.6255C172.186 69.697 171.161 68.598 171.314 67.3333C171.71 64.053 173.289 61.0621 173.916 57.8444C173.417 57.3291 172.529 57.9387 171.82 57.5105C171.748 57.3532 171.684 57.1682 171.678 56.9938C171.53 52.0011 174.028 53.8526 175.957 51.4415C176.615 50.619 176.645 49.1966 177.204 48.6067C178.01 47.7552 179.743 47.8978 180.827 47.875Z"/>
</svg>
